<svg xmlns="http://www.w3.org/2000/svg" width="512" height="512" viewBox="0 0 512 512">
  <rect width="512" height="512" rx="96" fill="#1e3a5f"/>
  <rect width="512" height="512" rx="96" fill="url(#g1)"/>
  <defs>
    <linearGradient id="g1" x1="0" y1="0" x2="512" y2="512" gradientUnits="userSpaceOnUse">
      <stop offset="0%" stop-color="#0f4c81"/>
      <stop offset="100%" stop-color="#1b6bd4"/>
    </linearGradient>
  </defs>
  <path d="M256 370 C256 370 140 300 140 220 C140 180 168 152 206 152 C228 152 248 162 256 178 C264 162 284 152 306 152 C344 152 372 180 372 220 C372 300 256 370 256 370Z" fill="#EF4444" opacity="0.9"/>
  <path d="M160 240 L192 240 L214 204 L240 276 L262 226 L278 240 L352 240" stroke="white" stroke-width="13" stroke-linecap="round" stroke-linejoin="round" fill="none"/>
  <text x="256" y="430" text-anchor="middle" font-family="Arial,sans-serif" font-size="34" font-weight="bold" fill="white" letter-spacing="2">CCMC HEALTH</text>
  <text x="256" y="465" text-anchor="middle" font-family="Arial,sans-serif" font-size="20" fill="rgba(255,255,255,0.7)">Maternal Tracker</text>
</svg>
