<svg xmlns="http://www.w3.org/2000/svg" width="192" height="192" viewBox="0 0 192 192">
  <rect width="192" height="192" rx="40" fill="#1e3a5f"/>
  <rect width="192" height="192" rx="40" fill="url(#g1)"/>
  <defs>
    <linearGradient id="g1" x1="0" y1="0" x2="192" y2="192" gradientUnits="userSpaceOnUse">
      <stop offset="0%" stop-color="#0f4c81"/>
      <stop offset="100%" stop-color="#1b6bd4"/>
    </linearGradient>
  </defs>
  <!-- Heart with pulse -->
  <path d="M96 140 C96 140 52 112 52 82 C52 67 64 56 78 56 C86 56 93 60 96 66 C99 60 106 56 114 56 C128 56 140 67 140 82 C140 112 96 140 96 140Z" fill="#EF4444" opacity="0.9"/>
  <path d="M60 90 L72 90 L80 76 L90 104 L98 84 L104 90 L132 90" stroke="white" stroke-width="5" stroke-linecap="round" stroke-linejoin="round" fill="none"/>
  <!-- Text -->
  <text x="96" y="162" text-anchor="middle" font-family="Arial,sans-serif" font-size="13" font-weight="bold" fill="white" letter-spacing="1">CCMC HEALTH</text>
</svg>
